<?xml version="1.0" encoding="utf-8"?>
<!-- Generator: Adobe Illustrator 27.5.0, SVG Export Plug-In . SVG Version: 6.00 Build 0)  -->
<svg version="1.1" xmlns="http://www.w3.org/2000/svg" xmlns:xlink="http://www.w3.org/1999/xlink" x="0px" y="0px"
	 viewBox="0 0 500 500" style="enable-background:new 0 0 500 500;" xml:space="preserve">
<g id="Background_Complete">
	<g>
		<rect y="382.398" style="fill:#EBEBEB;" width="500" height="0.25"/>
		<rect x="416.779" y="398.494" style="fill:#EBEBEB;" width="33.122" height="0.25"/>
		<rect x="322.527" y="401.208" style="fill:#EBEBEB;" width="8.693" height="0.25"/>
		<rect x="396.586" y="389.208" style="fill:#EBEBEB;" width="19.192" height="0.25"/>
		<rect x="52.459" y="390.888" style="fill:#EBEBEB;" width="43.193" height="0.25"/>
		<rect x="104.556" y="390.888" style="fill:#EBEBEB;" width="6.333" height="0.25"/>
		<rect x="131.471" y="395.111" style="fill:#EBEBEB;" width="93.676" height="0.25"/>
		<path style="fill:#EBEBEB;" d="M237.014,337.8H43.915c-3.147,0-5.708-2.561-5.708-5.708V60.66c0-3.147,2.561-5.708,5.708-5.708
			h193.099c3.146,0,5.707,2.561,5.707,5.708v271.432C242.721,335.239,240.16,337.8,237.014,337.8z M43.915,55.203
			c-3.01,0-5.458,2.448-5.458,5.458v271.432c0,3.01,2.448,5.458,5.458,5.458h193.099c3.009,0,5.457-2.448,5.457-5.458V60.66
			c0-3.009-2.448-5.458-5.457-5.458H43.915z"/>
		<path style="fill:#EBEBEB;" d="M453.31,337.8H260.212c-3.147,0-5.707-2.561-5.707-5.708V60.66c0-3.147,2.561-5.708,5.707-5.708
			H453.31c3.148,0,5.708,2.561,5.708,5.708v271.432C459.019,335.239,456.458,337.8,453.31,337.8z M260.212,55.203
			c-3.009,0-5.457,2.448-5.457,5.458v271.432c0,3.01,2.448,5.458,5.457,5.458H453.31c3.01,0,5.458-2.448,5.458-5.458V60.66
			c0-3.009-2.448-5.458-5.458-5.458H260.212z"/>
	</g>
	<g>
		<g>
			<rect x="329.465" y="220.067" style="fill:#FAFAFA;" width="25.459" height="10.831"/>
			<rect x="298.657" y="220.067" style="fill:#FAFAFA;" width="25.459" height="10.831"/>
			<rect x="267.849" y="220.067" style="fill:#FAFAFA;" width="25.459" height="10.831"/>
			<rect x="344.868" y="235.146" style="fill:#FAFAFA;" width="25.46" height="10.831"/>
			<rect x="314.061" y="235.146" style="fill:#FAFAFA;" width="25.459" height="10.831"/>
			<rect x="283.253" y="235.146" style="fill:#FAFAFA;" width="25.459" height="10.831"/>
			<rect x="252.445" y="235.146" style="fill:#FAFAFA;" width="25.459" height="10.831"/>
			<rect x="360.272" y="250.226" style="fill:#FAFAFA;" width="25.459" height="10.831"/>
			<rect x="392.59" y="281.387" style="fill:#FAFAFA;" width="25.459" height="10.831"/>
			<rect x="329.465" y="250.226" style="fill:#FAFAFA;" width="25.459" height="10.831"/>
			<rect x="298.657" y="250.226" style="fill:#FAFAFA;" width="25.459" height="10.831"/>
			<rect x="267.849" y="250.226" style="fill:#FAFAFA;" width="25.459" height="10.831"/>
			<rect x="237.041" y="250.226" style="fill:#FAFAFA;" width="25.459" height="10.831"/>
			<rect x="344.868" y="265.305" style="fill:#FAFAFA;" width="25.46" height="10.831"/>
			<rect x="314.061" y="265.305" style="fill:#FAFAFA;" width="25.459" height="10.831"/>
			<rect x="283.253" y="265.305" style="fill:#FAFAFA;" width="25.459" height="10.831"/>
			<rect x="252.445" y="265.305" style="fill:#FAFAFA;" width="25.459" height="10.831"/>
			<rect x="162.275" y="66.433" style="fill:#FAFAFA;" width="25.459" height="10.831"/>
			<rect x="131.467" y="66.433" style="fill:#FAFAFA;" width="25.459" height="10.831"/>
			<rect x="177.679" y="81.512" style="fill:#FAFAFA;" width="25.459" height="10.831"/>
			<rect x="146.871" y="81.512" style="fill:#FAFAFA;" width="25.459" height="10.831"/>
			<rect x="85.255" y="81.512" style="fill:#FAFAFA;" width="25.459" height="10.831"/>
			<rect x="54.448" y="81.512" style="fill:#FAFAFA;" width="25.459" height="10.831"/>
			<rect x="162.275" y="96.592" style="fill:#FAFAFA;" width="25.459" height="10.831"/>
			<rect x="131.467" y="96.592" style="fill:#FAFAFA;" width="25.459" height="10.831"/>
			<rect x="69.852" y="96.592" style="fill:#FAFAFA;" width="25.459" height="10.831"/>
			<rect x="52.581" y="147.288" style="fill:#FAFAFA;" width="25.459" height="10.831"/>
			<rect x="83.389" y="147.288" style="fill:#FAFAFA;" width="25.459" height="10.831"/>
			<rect x="67.985" y="132.209" style="fill:#FAFAFA;" width="25.459" height="10.831"/>
			<rect x="187.473" y="130.001" style="fill:#FAFAFA;" width="25.459" height="10.831"/>
			<rect x="156.665" y="130.001" style="fill:#FAFAFA;" width="25.459" height="10.831"/>
			<rect x="172.069" y="145.08" style="fill:#FAFAFA;" width="25.459" height="10.831"/>
			<rect x="292.564" y="67.079" style="fill:#FAFAFA;" width="25.459" height="10.831"/>
			<rect x="261.756" y="67.079" style="fill:#FAFAFA;" width="25.459" height="10.831"/>
			<rect x="307.968" y="82.158" style="fill:#FAFAFA;" width="25.46" height="10.831"/>
			<rect x="277.16" y="82.158" style="fill:#FAFAFA;" width="25.459" height="10.831"/>
			<rect x="386.606" y="73.253" style="fill:#FAFAFA;" width="25.459" height="10.831"/>
			<rect x="402.01" y="88.332" style="fill:#FAFAFA;" width="25.46" height="10.831"/>
			<rect x="395.944" y="217.96" style="fill:#FAFAFA;" width="25.46" height="10.831"/>
			<rect x="371.203" y="88.332" style="fill:#FAFAFA;" width="25.459" height="10.831"/>
			<rect x="246.352" y="82.158" style="fill:#FAFAFA;" width="25.459" height="10.831"/>
			<rect x="323.372" y="97.238" style="fill:#FAFAFA;" width="25.46" height="10.831"/>
			<rect x="292.564" y="97.238" style="fill:#FAFAFA;" width="25.459" height="10.831"/>
			<rect x="261.756" y="97.238" style="fill:#FAFAFA;" width="25.459" height="10.831"/>
			<rect x="307.968" y="112.317" style="fill:#FAFAFA;" width="25.46" height="10.831"/>
			<rect x="277.16" y="112.317" style="fill:#FAFAFA;" width="25.459" height="10.831"/>
			<rect x="82.32" y="202.268" style="fill:#FAFAFA;" width="25.459" height="10.831"/>
			<rect x="51.512" y="202.268" style="fill:#FAFAFA;" width="25.459" height="10.831"/>
			<rect x="159.339" y="217.348" style="fill:#FAFAFA;" width="25.46" height="10.831"/>
			<rect x="97.724" y="217.348" style="fill:#FAFAFA;" width="25.459" height="10.831"/>
			<rect x="66.916" y="217.348" style="fill:#FAFAFA;" width="25.459" height="10.831"/>
			<rect x="174.744" y="232.427" style="fill:#FAFAFA;" width="25.459" height="10.831"/>
			<rect x="143.936" y="232.427" style="fill:#FAFAFA;" width="25.459" height="10.831"/>
			<rect x="82.32" y="232.427" style="fill:#FAFAFA;" width="25.459" height="10.831"/>
			<rect x="51.512" y="232.427" style="fill:#FAFAFA;" width="25.459" height="10.831"/>
			<rect x="97.724" y="247.506" style="fill:#FAFAFA;" width="25.459" height="10.831"/>
			<rect x="66.916" y="247.506" style="fill:#FAFAFA;" width="25.459" height="10.831"/>
			<rect x="156.281" y="277.496" style="fill:#FAFAFA;" width="25.459" height="10.831"/>
			<rect x="125.473" y="277.496" style="fill:#FAFAFA;" width="25.46" height="10.831"/>
			<rect x="87.626" y="302.924" style="fill:#FAFAFA;" width="25.459" height="10.831"/>
			<rect x="56.818" y="302.924" style="fill:#FAFAFA;" width="25.459" height="10.831"/>
			<rect x="164.645" y="318.004" style="fill:#FAFAFA;" width="25.46" height="10.831"/>
			<rect x="140.877" y="292.575" style="fill:#FAFAFA;" width="25.459" height="10.831"/>
			<rect x="72.222" y="318.004" style="fill:#FAFAFA;" width="25.459" height="10.831"/>
			<rect x="180.049" y="333.083" style="fill:#FAFAFA;" width="25.459" height="10.831"/>
			<rect x="149.241" y="333.083" style="fill:#FAFAFA;" width="25.459" height="10.831"/>
			<rect x="118.433" y="333.083" style="fill:#FAFAFA;" width="25.46" height="10.831"/>
			<rect x="164.645" y="348.162" style="fill:#FAFAFA;" width="25.46" height="10.831"/>
			<rect x="133.837" y="348.162" style="fill:#FAFAFA;" width="25.459" height="10.831"/>
			<rect x="103.03" y="348.162" style="fill:#FAFAFA;" width="25.46" height="10.831"/>
			<rect x="323.408" y="302.228" style="fill:#FAFAFA;" width="25.459" height="10.831"/>
			<rect x="292.6" y="302.228" style="fill:#FAFAFA;" width="25.459" height="10.831"/>
			<rect x="261.792" y="302.228" style="fill:#FAFAFA;" width="25.46" height="10.831"/>
			<rect x="338.812" y="317.308" style="fill:#FAFAFA;" width="25.46" height="10.831"/>
			<rect x="308.004" y="317.308" style="fill:#FAFAFA;" width="25.459" height="10.831"/>
			<rect x="277.196" y="317.308" style="fill:#FAFAFA;" width="25.459" height="10.831"/>
			<rect x="246.388" y="317.308" style="fill:#FAFAFA;" width="25.46" height="10.831"/>
			<rect x="292.6" y="332.387" style="fill:#FAFAFA;" width="25.459" height="10.831"/>
			<rect x="261.792" y="332.387" style="fill:#FAFAFA;" width="25.46" height="10.831"/>
			<rect x="308.004" y="347.466" style="fill:#FAFAFA;" width="25.459" height="10.831"/>
			<rect x="277.196" y="347.466" style="fill:#FAFAFA;" width="25.459" height="10.831"/>
			<rect x="246.388" y="347.466" style="fill:#FAFAFA;" width="25.46" height="10.831"/>
		</g>
		<g>
			
				<rect x="363.131" y="108.879" transform="matrix(-1 -1.224647e-16 1.224647e-16 -1 796.4707 305.298)" style="fill:#F5F5F5;" width="70.21" height="87.539"/>
			<path style="fill:#E0E0E0;" d="M420.481,184.99c-8.841,6.336-8.864,9.812-15.199,2.714c-6.335-7.098-10.74-15.686-22.236-11.207
				c-11.496,4.479-17.896-7.118-10.538-17.785c7.358-10.667,4.661-25.244,0-32.219c-4.661-6.976-2.486-16.372,4.942-11.119
				c7.428,5.254,17.492,5.254,24.678,1.551c7.186-3.702,15.607-12.877,14.961,3.151c-0.646,16.028,7.605,11.005,9.726,19.107
				c2.121,8.102-8.123,2.963-6.333,20.712C422.272,177.645,428.32,179.373,420.481,184.99z"/>
			<path style="fill:#EBEBEB;" d="M377.231,187.704c10.751,4.763,15.31,7.114,20.342-3.509
				c5.032-10.623,15.181-24.754,22.509-20.835c7.328,3.919,5.107-13.919-8.962-9.443c-14.069,4.476-17.452,2.214-22.424-8.502
				c-4.973-10.717-3.773-16.679-9.741-12.772c-5.969,3.907,2.264,15.942-1.111,25.659
				C374.468,168.018,367.577,183.428,377.231,187.704z"/>
			<path style="fill:#EBEBEB;" d="M414.907,133.495c-4.338,8.314,1.515,21.607-9.794,16.033
				c-11.309-5.574-6.592-27.028-16.333-21.957c-9.741,5.071-3.148,19.754-11.465,20.475s-7.415-32,4.722-32.671
				c12.137-0.67,22.603,10.113,26.256,6.388c3.652-3.726,13.849-12.234,15.97-1.686
				C426.384,130.625,418.239,127.108,414.907,133.495z"/>
		</g>
		<g>
			<rect x="282.489" y="132.338" style="fill:#F5F5F5;" width="62.119" height="83.315"/>
			<path style="fill:#E6E6E6;" d="M335.838,207.284c-1.796,3.332-46.244-13.42-45.045-17.039c1.198-3.619,34.73-6.626,37.682-11.527
				c2.952-4.9-35.518-11.433-34.821-14.739c0.697-3.307,37.099-0.393,37.773-3.703c0.674-3.311-38.348-9.064-35.743-14.038
				s35.02-1.411,38.584,7.018c3.564,8.428-16.061,7.861-16.618,13.454c-0.557,5.594,20.915,6.676,18.189,15.656
				c-2.726,8.979-30.938,2.505-28.308,10.336C310.158,200.533,339.238,200.977,335.838,207.284z"/>
			<path style="fill:#EBEBEB;" d="M301.837,206.839c-5.802,1.359-12.503-9.007-5.613-6.689
				C303.113,202.468,307.639,205.481,301.837,206.839z"/>
			<path style="fill:#EBEBEB;" d="M328.02,193.723c-0.289,2.891,8.266,2.377,8.364,0
				C336.482,191.345,328.322,190.707,328.02,193.723z"/>
			<path style="fill:#EBEBEB;" d="M295.683,176.325c3.134,5.168,12.349,2.932,12.249,0.55
				C307.832,174.493,292.297,170.742,295.683,176.325z"/>
		</g>
		<g>
			<g>
				<path style="fill:#EBEBEB;" d="M402.623,348.454c0.152-1.024,3.652-25.172-3.359-33.509c-1.552-1.845-3.51-2.81-5.821-2.867
					c-14.153-0.332-16.089,11.036-16.106,11.152l1.669,0.257c0.065-0.407,1.743-10.027,14.396-9.721
					c1.831,0.045,3.326,0.786,4.57,2.265c6.527,7.761,3.018,31.93,2.981,32.173L402.623,348.454z"/>
			</g>
			<g>
				<path style="fill:#EBEBEB;" d="M403.479,347.353l1.688-0.053c-0.007-0.222-0.561-22.25,10.293-26.801
					c10.637-4.456,15.422,4.706,15.62,5.099l1.509-0.759c-0.055-0.11-5.67-10.976-17.782-5.897
					C402.884,323.941,403.45,346.4,403.479,347.353z"/>
			</g>
			<g>
				<path style="fill:#EBEBEB;" d="M403.43,349.084c0-0.351,0.101-35.19,6.894-45.38c6.522-9.783,17.043-5.177,17.487-4.975
					l0.698-1.538c-0.122-0.055-12.263-5.415-19.591,5.577c-7.075,10.613-7.177,44.862-7.178,46.315L403.43,349.084z"/>
			</g>
			<path style="fill:#E0E0E0;" d="M391.418,312.915c0,0,6.179,2.278,4.342,7.656c-1.837,5.378-21.378,14.23-21.378,14.23
				s-8.184-7.501-0.668-19.7C381.23,302.902,391.25,309.066,391.418,312.915z"/>
			<path style="fill:#E0E0E0;" d="M410.63,301.87c0,0-4.387-0.471-4.034-3.143c0.353-2.672,17.054-9.55,26.908,1.572
				c0,0-6.31,10.838-15.43,10.98C408.954,311.42,410.63,301.87,410.63,301.87z"/>
			<path style="fill:#E0E0E0;" d="M415.133,319.721c0,0-3.028-2.445,0.24-3.638c3.268-1.193,19.301-0.854,19.468,15.028
				c0,0-18.673,3.103-20.985-2.946C411.544,322.115,415.133,319.721,415.133,319.721z"/>
			<polygon style="fill:#EBEBEB;" points="388.097,380.809 417.074,380.809 420.201,349.083 384.971,349.083 			"/>
			
				<rect x="383.424" y="345.583" transform="matrix(-1 -1.224647e-16 1.224647e-16 -1 805.1713 698.1659)" style="fill:#E0E0E0;" width="38.324" height="7.001"/>
		</g>
	</g>
</g>
<g id="Background_Simple" style="display:none;">
	<g style="display:inline;">
		<path style="fill:#407BFF;" d="M85.457,103.378c27.919-59.449,127.059-51.062,165.317-9.255
			c38.258,41.806,50.696,68.599,85.208,52.983c34.512-15.616,78.518-11.44,81.043,38.164s-37.913,108.263-102.09,125.615
			c-64.177,17.352-64.161,78.759-149.1,66.368c-46.31-6.756-47.365-56.86-40.825-98.301S53.079,172.322,85.457,103.378z"/>
		<path style="opacity:0.9;fill:#FFFFFF;" d="M85.457,103.378c27.919-59.449,127.059-51.062,165.317-9.255
			c38.258,41.806,50.696,68.599,85.208,52.983c34.512-15.616,78.518-11.44,81.043,38.164s-37.913,108.263-102.09,125.615
			c-64.177,17.352-64.161,78.759-149.1,66.368c-46.31-6.756-47.365-56.86-40.825-98.301S53.079,172.322,85.457,103.378z"/>
	</g>
</g>
<g id="Shadow_1_">
	<ellipse id="_x3C_Path_x3E__359_" style="fill:#F5F5F5;" cx="250" cy="416.238" rx="193.889" ry="11.323"/>
</g>
<g id="Device">
	<g>
		<path style="fill:#263238;" d="M248.82,415.332H96.023c-5.745,0-10.402-4.657-10.402-10.402V113.487
			c0-5.745,4.657-10.402,10.402-10.402H248.82c5.745,0,10.402,4.657,10.402,10.402V404.93
			C259.223,410.675,254.566,415.332,248.82,415.332z"/>
		<path style="fill:#407BFF;" d="M253.364,113.545v290.768c0,2.392-1.922,4.25-4.314,4.25H95.333c-2.198,0-3.854-1.702-3.854-3.9
			V113.196c0-1.904,1.398-3.569,3.302-3.569h38.429c1.085,0,2.07,0.708,2.474,1.729l1.591,3.918
			c0.405,1.012,1.389,1.711,2.474,1.711h65.426c1.085,0,2.069-0.672,2.474-1.683l1.591-3.937c0.405-1.021,1.389-1.738,2.474-1.738
			h37.877C251.69,109.627,253.364,111.448,253.364,113.545z"/>
		<rect x="91.479" y="127.793" style="opacity:0.5;fill:#FFFFFF;enable-background:new    ;" width="161.885" height="264.418"/>
		<g>
			<g>
				
					<rect x="109.319" y="118.679" transform="matrix(-1 -1.224647e-16 1.224647e-16 -1 220.6375 240.0233)" style="opacity:0.6;fill:#FFFFFF;enable-background:new    ;" width="2" height="2.666"/>
				
					<rect x="106.06" y="117.789" transform="matrix(-1 -1.224647e-16 1.224647e-16 -1 214.1199 239.134)" style="opacity:0.6;fill:#FFFFFF;enable-background:new    ;" width="2" height="3.555"/>
				
					<rect x="102.801" y="116.9" transform="matrix(-1 -1.224647e-16 1.224647e-16 -1 207.6025 238.2447)" style="opacity:0.6;fill:#FFFFFF;enable-background:new    ;" width="2" height="4.444"/>
				
					<rect x="99.543" y="116.011" transform="matrix(-1 -1.224647e-16 1.224647e-16 -1 201.0849 237.3554)" style="opacity:0.6;fill:#FFFFFF;enable-background:new    ;" width="2" height="5.334"/>
			</g>
			<g>
				<rect x="233.858" y="117.706" style="opacity:0.6;fill:#FFFFFF;enable-background:new    ;" width="1.185" height="2.666"/>
				
					<rect x="235.858" y="116.733" transform="matrix(-1 -1.224647e-16 1.224647e-16 -1 481.1582 238.0776)" style="opacity:0.6;fill:#FFFFFF;enable-background:new    ;" width="9.443" height="4.611"/>
			</g>
		</g>
		<g>
			<path style="opacity:0.6;fill:#FFFFFF;enable-background:new    ;" d="M172.395,110.01c0,1.227-0.995,2.222-2.222,2.222
				c-1.227,0-2.222-0.995-2.222-2.222c0-1.227,0.995-2.222,2.222-2.222C171.4,107.788,172.395,108.783,172.395,110.01z"/>
			<path style="opacity:0.6;fill:#FFFFFF;enable-background:new    ;" d="M176.892,110.01c0,0.786-0.637,1.423-1.423,1.423
				c-0.786,0-1.424-0.637-1.424-1.423c0-0.786,0.637-1.424,1.424-1.424C176.255,108.586,176.892,109.224,176.892,110.01z"/>
		</g>
		<g>
			<path style="fill:#FFFFFF;" d="M216.981,158.335H107.232c-4.247,0-7.69-3.443-7.69-7.69v0c0-4.247,3.443-7.69,7.69-7.69h109.749
				c4.247,0,7.69,3.443,7.69,7.69v0C224.67,154.893,221.227,158.335,216.981,158.335z"/>
			<g>
				<path style="fill:none;stroke:#407BFF;stroke-linecap:round;stroke-linejoin:round;stroke-miterlimit:10;" d="M216.363,147.513
					c1.313,1.313,1.313,3.442,0,4.755s-3.442,1.313-4.755,0c-1.313-1.313-1.313-3.442,0-4.755
					C212.92,146.2,215.049,146.2,216.363,147.513z"/>
				
					<line style="fill:none;stroke:#407BFF;stroke-linecap:round;stroke-linejoin:round;stroke-miterlimit:10;" x1="216.363" y1="152.269" x2="218.857" y2="154.763"/>
			</g>
		</g>
		<g>
			<path style="opacity:0.2;enable-background:new    ;" d="M242.522,158.335h-10.83c-1.256,0-2.275-1.018-2.275-2.275v-10.83
				c0-1.256,1.018-2.275,2.275-2.275h10.83c1.256,0,2.275,1.019,2.275,2.275v10.83C244.797,157.317,243.779,158.335,242.522,158.335
				z"/>
			<g>
				<path style="fill:#FFFFFF;" d="M234.495,146.945c0,0.564-0.458,1.022-1.022,1.022c-0.564,0-1.022-0.458-1.022-1.022
					c0-0.564,0.458-1.022,1.022-1.022C234.037,145.923,234.495,146.381,234.495,146.945z"/>
				<circle style="fill:#FFFFFF;" cx="241.088" cy="150.646" r="1.022"/>
				<circle style="fill:#FFFFFF;" cx="233.858" cy="154.763" r="1.022"/>
				<polyline style="fill:none;stroke:#FFFFFF;stroke-width:0.5;stroke-miterlimit:10;" points="233.472,146.945 241.088,150.646 
					233.858,154.763 				"/>
			</g>
		</g>
		<rect x="91.479" y="171.93" style="opacity:0.6;fill:#FFFFFF;enable-background:new    ;" width="161.885" height="220.28"/>
		<g>
			
				<rect x="163.764" y="202.96" transform="matrix(-0.7071 0.7071 -0.7071 -0.7071 442.496 238.7193)" style="opacity:0.2;fill:#FFFFFF;enable-background:new    ;" width="16.088" height="16.088"/>
			<g>
				<path style="opacity:0.2;enable-background:new    ;" d="M110.009,229.205h27.022c2.59,0,4.69-2.1,4.69-4.69v-27.022
					c0-2.59-2.1-4.69-4.69-4.69h-27.022c-2.59,0-4.69,2.1-4.69,4.69v27.022C105.319,227.105,107.419,229.205,110.009,229.205z"/>
				<path style="opacity:0.2;enable-background:new    ;" d="M107.283,239.897h32.474c1.085,0,1.965-0.88,1.965-1.964l0,0
					c0-1.085-0.88-1.965-1.965-1.965h-32.474c-1.085,0-1.965,0.88-1.965,1.965l0,0C105.319,239.017,106.199,239.897,107.283,239.897
					z"/>
			</g>
			<g>
				<path style="opacity:0.2;enable-background:new    ;" d="M158.297,297.205h27.022c2.59,0,4.69-2.1,4.69-4.69v-27.022
					c0-2.59-2.1-4.69-4.69-4.69h-27.022c-2.59,0-4.69,2.1-4.69,4.69v27.022C153.606,295.105,155.706,297.205,158.297,297.205z"/>
				<path style="opacity:0.2;enable-background:new    ;" d="M155.571,307.897h32.474c1.085,0,1.964-0.879,1.964-1.965l0,0
					c0-1.085-0.88-1.964-1.964-1.964h-32.474c-1.085,0-1.965,0.88-1.965,1.964l0,0C153.606,307.017,154.486,307.897,155.571,307.897
					z"/>
			</g>
			<g>
				<path style="opacity:0.2;enable-background:new    ;" d="M110.009,297.205h27.022c2.59,0,4.69-2.1,4.69-4.69v-27.022
					c0-2.59-2.1-4.69-4.69-4.69h-27.022c-2.59,0-4.69,2.1-4.69,4.69v27.022C105.319,295.105,107.419,297.205,110.009,297.205z"/>
				<path style="opacity:0.2;enable-background:new    ;" d="M107.283,307.897h32.474c1.085,0,1.965-0.879,1.965-1.965l0,0
					c0-1.085-0.88-1.964-1.965-1.964h-32.474c-1.085,0-1.965,0.88-1.965,1.964l0,0C105.319,307.017,106.199,307.897,107.283,307.897
					z"/>
			</g>
			<polygon style="opacity:0.2;fill:#FFFFFF;enable-background:new    ;" points="117.593,268.738 129.447,268.738 135.374,279.004 
				129.447,289.269 117.593,289.269 111.667,279.004 			"/>
			<polygon style="opacity:0.2;fill:#FFFFFF;enable-background:new    ;" points="181.355,272.233 181.355,286.802 162.26,286.802 
							"/>
			<g>
				<path style="opacity:0.2;enable-background:new    ;" d="M206.584,229.205h27.022c2.59,0,4.69-2.1,4.69-4.69v-27.022
					c0-2.59-2.1-4.69-4.69-4.69h-27.022c-2.59,0-4.69,2.1-4.69,4.69v27.022C201.894,227.105,203.994,229.205,206.584,229.205z"/>
				<path style="opacity:0.2;enable-background:new    ;" d="M203.858,239.897h32.474c1.085,0,1.964-0.88,1.964-1.964l0,0
					c0-1.085-0.88-1.965-1.964-1.965h-32.474c-1.085,0-1.964,0.88-1.964,1.965l0,0C201.894,239.017,202.773,239.897,203.858,239.897
					z"/>
			</g>
			
				<ellipse transform="matrix(0.9732 -0.2298 0.2298 0.9732 -42.4655 56.3316)" style="opacity:0.2;fill:#FFFFFF;enable-background:new    ;" cx="220.672" cy="210.526" rx="10.207" ry="10.207"/>
			<path style="opacity:0.2;fill:#FFFFFF;enable-background:new    ;" d="M119.109,200.319c0,0,13.956,15.824,13.561,15.824
				s-18.308,3.692-18.308,3.692L119.109,200.319z"/>
			<g>
				<path style="opacity:0.2;enable-background:new    ;" d="M158.297,229.205h27.022c2.59,0,4.69-2.1,4.69-4.69v-27.022
					c0-2.59-2.1-4.69-4.69-4.69h-27.022c-2.59,0-4.69,2.1-4.69,4.69v27.022C153.606,227.105,155.706,229.205,158.297,229.205z"/>
				<path style="opacity:0.2;enable-background:new    ;" d="M155.571,239.897h32.474c1.085,0,1.964-0.88,1.964-1.964l0,0
					c0-1.085-0.88-1.965-1.964-1.965h-32.474c-1.085,0-1.965,0.88-1.965,1.965l0,0C153.606,239.017,154.486,239.897,155.571,239.897
					z"/>
			</g>
		</g>
		<g style="opacity:0.2;enable-background:new    ;">
			<path d="M111.271,150.67v1.68h-0.391v-1.642c0-0.611-0.319-0.925-0.87-0.925c-0.623,0-1.014,0.386-1.014,1.046v1.521h-0.391
				v-4.087h0.391v1.697c0.215-0.336,0.595-0.529,1.085-0.529C110.786,149.431,111.271,149.839,111.271,150.67z"/>
			<path d="M113.864,152.174c-0.154,0.138-0.386,0.204-0.611,0.204c-0.545,0-0.849-0.308-0.849-0.843v-1.751h-0.518v-0.331h0.518
				v-0.633h0.391v0.633h0.881v0.331h-0.881v1.729c0,0.342,0.176,0.529,0.502,0.529c0.16,0,0.319-0.049,0.43-0.148L113.864,152.174z"
				/>
			<path d="M116.025,152.174c-0.154,0.138-0.386,0.204-0.611,0.204c-0.545,0-0.849-0.308-0.849-0.843v-1.751h-0.518v-0.331h0.518
				v-0.633h0.391v0.633h0.881v0.331h-0.881v1.729c0,0.342,0.176,0.529,0.502,0.529c0.16,0,0.319-0.049,0.43-0.148L116.025,152.174z"
				/>
			<path d="M119.674,150.902c0,0.881-0.617,1.476-1.443,1.476c-0.463,0-0.859-0.198-1.102-0.573v1.614h-0.391v-3.966h0.375v0.573
				c0.237-0.385,0.639-0.595,1.118-0.595C119.057,149.431,119.674,150.026,119.674,150.902z M119.283,150.902
				c0-0.672-0.468-1.129-1.08-1.129c-0.617,0-1.08,0.457-1.08,1.129c0,0.678,0.462,1.129,1.08,1.129
				C118.815,152.031,119.283,151.58,119.283,150.902z"/>
			<path d="M120.074,152.02l0.176-0.309c0.231,0.182,0.622,0.325,1.03,0.325c0.551,0,0.777-0.188,0.777-0.474
				c0-0.755-1.878-0.16-1.878-1.306c0-0.474,0.407-0.826,1.146-0.826c0.375,0,0.782,0.104,1.024,0.27l-0.17,0.314
				c-0.253-0.176-0.557-0.248-0.854-0.248c-0.523,0-0.754,0.204-0.754,0.479c0,0.782,1.878,0.192,1.878,1.305
				c0,0.501-0.441,0.826-1.196,0.826C120.774,152.378,120.311,152.224,120.074,152.02z"/>
			<path d="M122.919,149.729c0-0.171,0.132-0.297,0.292-0.297c0.16,0,0.297,0.126,0.297,0.297s-0.138,0.303-0.297,0.303
				C123.052,150.032,122.919,149.899,122.919,149.729z M122.919,152.075c0-0.171,0.132-0.297,0.292-0.297
				c0.16,0,0.297,0.126,0.297,0.297s-0.138,0.303-0.297,0.303C123.052,152.378,122.919,152.246,122.919,152.075z"/>
			<path d="M125.725,147.712h0.358l-1.818,5.189h-0.358L125.725,147.712z"/>
			<path d="M127.214,147.712h0.358l-1.818,5.189h-0.358L127.214,147.712z"/>
			<path d="M132.333,150.67v1.68h-0.391v-1.642c0-0.611-0.309-0.925-0.832-0.925c-0.595,0-0.97,0.386-0.97,1.046v1.521h-0.391
				v-1.642c0-0.611-0.309-0.925-0.837-0.925c-0.589,0-0.969,0.386-0.969,1.046v1.521h-0.391v-2.898h0.374v0.529
				c0.204-0.347,0.578-0.551,1.063-0.551c0.48,0,0.854,0.204,1.03,0.611c0.21-0.374,0.623-0.611,1.146-0.611
				C131.87,149.431,132.333,149.839,132.333,150.67z"/>
			<path d="M135.781,149.453l-1.449,3.245c-0.242,0.567-0.551,0.749-0.964,0.749c-0.27,0-0.529-0.088-0.705-0.265l0.182-0.292
				c0.144,0.143,0.32,0.22,0.529,0.22c0.259,0,0.435-0.121,0.601-0.485l0.127-0.281l-1.295-2.892h0.408l1.091,2.462l1.09-2.462
				H135.781z"/>
			<path d="M136.335,148.263h0.391v4.087h-0.391V148.263z"/>
			<path d="M137.73,148.539c0-0.148,0.127-0.275,0.287-0.275s0.287,0.122,0.287,0.27c0,0.16-0.122,0.287-0.287,0.287
				C137.857,148.82,137.73,148.693,137.73,148.539z M137.818,149.453h0.391v2.898h-0.391V149.453z"/>
			<path d="M141.968,150.67v1.68h-0.391v-1.642c0-0.611-0.319-0.925-0.87-0.925c-0.622,0-1.014,0.386-1.014,1.046v1.521h-0.391
				v-2.898h0.374v0.534c0.209-0.353,0.601-0.556,1.102-0.556C141.483,149.431,141.968,149.839,141.968,150.67z"/>
			<path d="M144.109,150.896l-0.683,0.628v0.826h-0.391v-4.087h0.391v2.771l1.73-1.581h0.485l-1.239,1.185l1.355,1.713h-0.48
				L144.109,150.896z"/>
			<path d="M147.483,147.712h0.358l-1.818,5.189h-0.358L147.483,147.712z"/>
		</g>
	</g>
</g>
<g id="Screen">
	<g>
		<path style="opacity:0.2;enable-background:new    ;" d="M284.15,189.56v84.01c0,2.66-2.15,4.81-4.81,4.81H121.33
			c-2.66,0-4.81-2.15-4.81-4.81v-84.01c0-2.65,2.15-4.8,4.81-4.8h158.01C282,184.76,284.15,186.91,284.15,189.56z"/>
		<path style="fill:#407BFF;" d="M291.15,181.56v84.01c0,2.66-2.15,4.81-4.81,4.81H128.33c-2.66,0-4.81-2.15-4.81-4.81v-84.01
			c0-2.65,2.15-4.8,4.81-4.8h158.01C289,176.76,291.15,178.91,291.15,181.56z"/>
		<path style="opacity:0.5;fill:#FFFFFF;enable-background:new    ;" d="M291.15,192.95v72.62c0,2.66-2.15,4.81-4.81,4.81H128.33
			c-2.66,0-4.81-2.15-4.81-4.81v-72.62H291.15z"/>
		<rect x="133.637" y="205.927" style="fill:#FFFFFF;" width="113.727" height="19.543"/>
		<g>
			<path style="fill:#263238;" d="M145.44,215.448v2.788h-0.877v-2.687c0-0.951-0.475-1.417-1.307-1.417
				c-0.932,0-1.536,0.558-1.536,1.609v2.495h-0.877v-6.782h0.877v2.623c0.366-0.466,0.969-0.731,1.71-0.731
				C144.608,213.346,145.44,214.023,145.44,215.448z"/>
			<path style="fill:#263238;" d="M149.793,217.953c-0.265,0.229-0.667,0.338-1.061,0.338c-0.978,0-1.536-0.539-1.536-1.517v-2.66
				h-0.822v-0.722h0.822v-1.06h0.877v1.06h1.39v0.722h-1.39v2.623c0,0.521,0.274,0.813,0.759,0.813c0.256,0,0.503-0.082,0.686-0.229
				L149.793,217.953z"/>
			<path style="fill:#263238;" d="M153.46,217.953c-0.265,0.229-0.667,0.338-1.061,0.338c-0.978,0-1.536-0.539-1.536-1.517v-2.66
				h-0.822v-0.722h0.822v-1.06h0.877v1.06h1.39v0.722h-1.39v2.623c0,0.521,0.274,0.813,0.759,0.813c0.256,0,0.503-0.082,0.686-0.229
				L153.46,217.953z"/>
			<path style="fill:#263238;" d="M159.539,215.814c0,1.49-1.033,2.477-2.45,2.477c-0.686,0-1.289-0.265-1.691-0.786v2.504h-0.877
				v-6.617h0.841v0.768c0.393-0.539,1.014-0.813,1.727-0.813C158.506,213.346,159.539,214.333,159.539,215.814z M158.652,215.814
				c0-1.024-0.704-1.7-1.636-1.7c-0.923,0-1.627,0.676-1.627,1.7c0,1.033,0.704,1.709,1.627,1.709
				C157.948,217.523,158.652,216.847,158.652,215.814z"/>
			<path style="fill:#263238;" d="M160.144,217.724l0.366-0.695c0.411,0.292,1.069,0.503,1.7,0.503c0.813,0,1.151-0.247,1.151-0.658
				c0-1.088-3.062-0.146-3.062-2.075c0-0.869,0.777-1.454,2.02-1.454c0.631,0,1.344,0.165,1.764,0.439l-0.374,0.695
				c-0.439-0.284-0.923-0.384-1.398-0.384c-0.768,0-1.143,0.284-1.143,0.667c0,1.143,3.071,0.21,3.071,2.093
				c0,0.877-0.804,1.435-2.093,1.435C161.341,218.29,160.546,218.044,160.144,217.724z"/>
			<path style="fill:#263238;" d="M164.925,213.967c0-0.365,0.283-0.622,0.622-0.622c0.329,0,0.603,0.256,0.603,0.622
				c0,0.366-0.274,0.631-0.603,0.631C165.208,214.598,164.925,214.333,164.925,213.967z M164.925,217.66
				c0-0.366,0.283-0.622,0.622-0.622c0.329,0,0.603,0.256,0.603,0.622c0,0.365-0.274,0.63-0.603,0.63
				C165.208,218.29,164.925,218.025,164.925,217.66z"/>
			<path style="fill:#263238;" d="M169.779,210.54h0.795l-3.017,8.61h-0.795L169.779,210.54z"/>
			<path style="fill:#263238;" d="M172.376,210.54h0.795l-3.017,8.61h-0.795L172.376,210.54z"/>
			<path style="fill:#263238;" d="M179.726,218.236l-0.009-4.662l-2.313,3.885h-0.42l-2.313-3.857v4.634h-0.877v-6.398h0.749
				l2.669,4.497l2.632-4.497h0.75l0.009,6.398H179.726z"/>
			<path style="fill:#263238;" d="M184.975,216.024v2.212h-0.905v-2.23l-2.541-4.168h0.978l2.047,3.372l2.057-3.372h0.905
				L184.975,216.024z"/>
			<path style="fill:#263238;" d="M188.331,211.838h0.914v5.602h3.464v0.795h-4.378V211.838z"/>
			<path style="fill:#263238;" d="M193.762,211.838h0.914v6.398h-0.914V211.838z"/>
			<path style="fill:#263238;" d="M202.099,211.838v6.398h-0.749l-3.839-4.771v4.771h-0.914v-6.398h0.749l3.839,4.771v-4.771
				H202.099z"/>
			<path style="fill:#263238;" d="M206.105,215.393l-1.17,1.188v1.654h-0.914v-6.398h0.914v3.574l3.473-3.574h1.042l-2.733,2.879
				l2.907,3.519h-1.069L206.105,215.393z"/>
			<path style="fill:#263238;" d="M212.459,210.54h0.795l-3.017,8.61h-0.795L212.459,210.54z"/>
		</g>
		<g>
			<path style="fill:#FFFFFF;" d="M137.244,185.904h0.534v2.008c-0.496,0.444-1.204,0.669-1.933,0.669
				c-1.602,0-2.776-1.136-2.776-2.678c0-1.542,1.173-2.678,2.783-2.678c0.797,0,1.49,0.256,1.956,0.76l-0.346,0.354
				c-0.444-0.436-0.97-0.617-1.587-0.617c-1.302,0-2.257,0.925-2.257,2.182c0,1.249,0.955,2.182,2.249,2.182
				c0.504,0,0.971-0.113,1.377-0.406V185.904z"/>
			<path style="fill:#FFFFFF;" d="M142.678,186.724h-3.31c0.06,0.828,0.692,1.376,1.557,1.376c0.481,0,0.91-0.173,1.211-0.519
				l0.301,0.346c-0.354,0.421-0.902,0.647-1.527,0.647c-1.234,0-2.076-0.842-2.076-2.016c0-1.173,0.82-2.008,1.933-2.008
				c1.113,0,1.918,0.82,1.918,2.008C142.686,186.604,142.678,186.664,142.678,186.724z M139.368,186.325h2.806
				c-0.068-0.775-0.632-1.317-1.407-1.317C140,185.008,139.436,185.55,139.368,186.325z"/>
			<path style="fill:#FFFFFF;" d="M145.856,188.296c-0.211,0.188-0.527,0.278-0.835,0.278c-0.745,0-1.159-0.421-1.159-1.151v-2.392
				h-0.707v-0.452h0.707v-0.865h0.534v0.865h1.204v0.452h-1.204v2.362c0,0.466,0.241,0.722,0.685,0.722
				c0.218,0,0.436-0.067,0.587-0.203L145.856,188.296z"/>
			<path style="fill:#FFFFFF;" d="M148.905,183.271h0.557v4.784h2.949v0.481h-3.506V183.271z"/>
			<path style="fill:#FFFFFF;" d="M153.1,183.331c0-0.203,0.173-0.376,0.391-0.376c0.218,0,0.391,0.165,0.391,0.368
				c0,0.218-0.166,0.392-0.391,0.392C153.273,183.715,153.1,183.542,153.1,183.331z M153.22,184.58h0.534v3.957h-0.534V184.58z"/>
			<path style="fill:#FFFFFF;" d="M158.883,186.242v2.294h-0.534v-2.242c0-0.835-0.437-1.264-1.188-1.264
				c-0.85,0-1.384,0.526-1.384,1.429v2.076h-0.534v-3.957h0.512v0.73c0.286-0.482,0.82-0.76,1.504-0.76
				C158.221,184.55,158.883,185.106,158.883,186.242z"/>
			<path style="fill:#FFFFFF;" d="M161.797,186.551l-0.933,0.857v1.128h-0.534v-5.582h0.534v3.784l2.362-2.159h0.662l-1.692,1.618
				l1.851,2.339h-0.654L161.797,186.551z"/>
		</g>
		<g>
			<path style="fill:#FFFFFF;" d="M254.095,215.603c0-1.542,1.173-2.678,2.761-2.678c0.767,0,1.459,0.256,1.926,0.768l-0.353,0.354
				c-0.429-0.436-0.955-0.624-1.557-0.624c-1.271,0-2.227,0.933-2.227,2.182c0,1.249,0.955,2.182,2.227,2.182
				c0.602,0,1.128-0.188,1.557-0.632l0.353,0.354c-0.466,0.511-1.158,0.775-1.933,0.775
				C255.268,218.281,254.095,217.145,254.095,215.603z"/>
			<path style="fill:#FFFFFF;" d="M259.386,215.603c0-1.535,1.174-2.678,2.769-2.678c1.58,0,2.761,1.136,2.761,2.678
				c0,1.542-1.181,2.678-2.761,2.678C260.56,218.281,259.386,217.138,259.386,215.603z M264.359,215.603
				c0-1.256-0.94-2.182-2.204-2.182c-1.271,0-2.219,0.925-2.219,2.182c0,1.256,0.948,2.182,2.219,2.182
				C263.418,217.785,264.359,216.859,264.359,215.603z"/>
			<path style="fill:#FFFFFF;" d="M270.281,214.775c0,1.121-0.813,1.798-2.151,1.798h-1.415v1.663h-0.557v-5.266h1.971
				C269.468,212.97,270.281,213.647,270.281,214.775z M269.724,214.775c0-0.842-0.557-1.324-1.61-1.324h-1.399v2.633h1.399
				C269.168,216.085,269.724,215.603,269.724,214.775z"/>
			<path style="fill:#FFFFFF;" d="M273.286,216.415v1.82h-0.549v-1.82l-2.106-3.445h0.594l1.806,2.956l1.806-2.956h0.557
				L273.286,216.415z"/>
		</g>
		<g>
			<path style="fill:#FFFFFF;" d="M280.066,206.927v17.543h-31.702v-17.543H280.066 M281.066,205.927h-33.702v19.543h33.702V205.927
				L281.066,205.927z"/>
		</g>
		<g>
			<path style="fill:#407BFF;" d="M276.759,260.045h-53.594c-2.379,0-4.307-1.928-4.307-4.307v-11.176
				c0-2.379,1.928-4.307,4.307-4.307h53.594c2.379,0,4.307,1.929,4.307,4.307v11.176
				C281.066,258.116,279.137,260.045,276.759,260.045z"/>
			<g>
				<path style="fill:#FFFFFF;" d="M233.851,252.145l0.345-0.727c0.485,0.438,1.315,0.755,2.154,0.755
					c1.128,0,1.612-0.438,1.612-1.007c0-1.595-3.953-0.588-3.953-3.012c0-1.007,0.783-1.864,2.499-1.864
					c0.765,0,1.557,0.205,2.098,0.578l-0.308,0.745c-0.568-0.363-1.212-0.531-1.79-0.531c-1.109,0-1.585,0.467-1.585,1.035
					c0,1.595,3.953,0.597,3.953,2.993c0,0.997-0.802,1.855-2.526,1.855C235.352,252.966,234.373,252.631,233.851,252.145z"/>
				<path style="fill:#FFFFFF;" d="M245.852,246.365v6.526h-0.933v-2.909h-3.748v2.909h-0.932v-6.526h0.932v2.807h3.748v-2.807
					H245.852z"/>
				<path style="fill:#FFFFFF;" d="M251.97,251.26h-3.468l-0.718,1.632h-0.961l2.956-6.526h0.923l2.965,6.526h-0.98L251.97,251.26z
					 M251.644,250.515l-1.408-3.198l-1.407,3.198H251.644z"/>
				<path style="fill:#FFFFFF;" d="M259.001,252.892l-1.407-2.005c-0.131,0.01-0.27,0.02-0.411,0.02h-1.612v1.985h-0.933v-6.526
					h2.545c1.697,0,2.723,0.857,2.723,2.275c0,1.007-0.522,1.733-1.436,2.06l1.548,2.191H259.001z M258.973,248.641
					c0-0.933-0.624-1.464-1.817-1.464h-1.585v2.936h1.585C258.349,250.113,258.973,249.572,258.973,248.641z"/>
				<path style="fill:#FFFFFF;" d="M266.154,252.08v0.812h-4.736v-6.526h4.605v0.812h-3.673v2.004h3.272v0.793h-3.272v2.106H266.154
					z"/>
			</g>
		</g>
	</g>
</g>
<g id="Speech_bubble">
	<g>
		<path style="fill:#407BFF;" d="M348.261,197.732h-16.483c-1.687,0-3.055-1.368-3.055-3.055v-16.483
			c0-1.687,1.368-3.055,3.055-3.055h16.483c1.687,0,3.055,1.368,3.055,3.055v16.483
			C351.316,196.364,349.948,197.732,348.261,197.732z"/>
		<g>
			<circle style="fill:#FFFFFF;" cx="334.81" cy="181.088" r="1.398"/>
			<circle style="fill:#FFFFFF;" cx="345.228" cy="186.15" r="1.398"/>
			<path style="fill:#FFFFFF;" d="M336.736,191.783c0,0.772-0.626,1.398-1.398,1.398c-0.772,0-1.398-0.626-1.398-1.398
				c0-0.772,0.626-1.398,1.398-1.398C336.109,190.385,336.736,191.011,336.736,191.783z"/>
			<polyline style="fill:none;stroke:#FFFFFF;stroke-width:0.5;stroke-miterlimit:10;" points="334.81,181.088 345.228,186.15 
				335.337,191.783 			"/>
		</g>
		<path style="fill:#407BFF;" d="M340.595,195.026c0,0-0.039,4.701,2.672,6.908c0,0-3.712-0.646-5.422-6.103L340.595,195.026z"/>
	</g>
</g>
<g id="Character">
	<g>
		<g>
			
				<rect x="340.605" y="339.087" transform="matrix(-1 -1.224647e-16 1.224647e-16 -1 688.5023 754.4197)" style="fill:#407BFF;" width="7.292" height="76.245"/>
			
				<rect x="340.605" y="339.087" transform="matrix(-1 -1.224647e-16 1.224647e-16 -1 688.5023 754.4197)" style="opacity:0.2;enable-background:new    ;" width="7.292" height="76.245"/>
			
				<rect x="288.414" y="339.087" transform="matrix(-1 -1.224647e-16 1.224647e-16 -1 584.1197 754.4197)" style="fill:#407BFF;" width="7.292" height="76.245"/>
			
				<rect x="288.414" y="339.087" transform="matrix(-1 -1.224647e-16 1.224647e-16 -1 584.1197 754.4197)" style="opacity:0.2;enable-background:new    ;" width="7.292" height="76.245"/>
			
				<rect x="350.193" y="339.087" transform="matrix(-1 -1.224647e-16 1.224647e-16 -1 707.6789 754.4197)" style="fill:#407BFF;" width="7.292" height="76.245"/>
			
				<rect x="402.385" y="339.087" transform="matrix(-1 -1.224647e-16 1.224647e-16 -1 812.0615 754.4197)" style="fill:#407BFF;" width="7.292" height="76.245"/>
			<g>
				<path style="fill:#407BFF;" d="M273.479,336.264v5.637c0,0.913,0.731,1.653,1.644,1.653h141.458
					c0.913,0,1.653-0.739,1.653-1.653v-5.637c0-0.905-0.74-1.644-1.653-1.644H275.124
					C274.21,334.621,273.479,335.36,273.479,336.264z"/>
				<path style="opacity:0.2;fill:#FFFFFF;enable-background:new    ;" d="M273.479,336.264v5.637c0,0.913,0.731,1.653,1.644,1.653
					h141.458c0.913,0,1.653-0.739,1.653-1.653v-5.637c0-0.905-0.74-1.644-1.653-1.644H275.124
					C274.21,334.621,273.479,335.36,273.479,336.264z"/>
				<path style="opacity:0.3;fill:#FFFFFF;enable-background:new    ;" d="M361.355,336.264v5.637c0,0.913,0.731,1.653,1.644,1.653
					h53.583c0.913,0,1.653-0.739,1.653-1.653v-5.637c0-0.905-0.74-1.644-1.653-1.644h-53.583
					C362.085,334.621,361.355,335.36,361.355,336.264z"/>
			</g>
		</g>
		<g id="_x3C_Group_x3E__152_">
			<path style="fill:#263238;" d="M360.267,209.026c4.865,1.183,8.057,5.879,8.023,10.743c-0.034,4.864,0.139,4.798,2.908,6.586
				c2.769,1.788-1.78,5.019-1.78,5.019s1.133,1.719-0.324,3.332c-1.457,1.613,1.379,2.141,1.379,2.141s-1.187,2.55-2.703,1.176
				c0,0,0.162,2.748-4.304,2.942c-4.466,0.193-11.619,2.08-13.317-0.294c-1.698-2.374-7.104-9.231-7.104-9.231
				s-4.753-1.865-3.365-8.35c1.387-6.485,6.405-11.167,11.083-11.035C355.44,212.187,360.267,209.026,360.267,209.026z"/>
			<g>
				<path style="fill:#E4897B;" d="M328.361,248.2c0,0-3.743,0.753-3.728,1.439c0.015,0.685,1.458,6.085,2.123,6.743
					c0.665,0.658,2.268,1.465,2.268,1.465l-0.956,8.728l5.112,1.319l0.073-9.301c0,0,1.794-2.734,0.502-5.418
					S328.361,248.2,328.361,248.2z"/>
				<path style="opacity:0.2;enable-background:new    ;" d="M328.361,248.2c0,0-3.743,0.753-3.728,1.439
					c0.015,0.685,1.458,6.085,2.123,6.743c0.665,0.658,2.268,1.465,2.268,1.465l-0.956,8.728l5.112,1.319l0.073-9.301
					c0,0,1.794-2.734,0.502-5.418S328.361,248.2,328.361,248.2z"/>
			</g>
			<g>
				<path style="fill:#263238;" d="M341.944,249.223c-3.38,2.422-4.667,15.793-6.001,17.735c-1.335,1.941-1.868-3.693-1.868-3.693
					l-6.806-0.327c0,0-0.93,7.956,2.994,13.611c3.925,5.655,11.171,1.455,15.273-7.624
					C349.638,259.846,341.944,249.223,341.944,249.223z"/>
				<path style="opacity:0.2;fill:#FFFFFF;enable-background:new    ;" d="M330.267,276.553c0.886,1.275,1.938,2.05,3.088,2.376
					c3.944,1.127,9.01-2.971,12.184-10.001c1.023-2.273,1.32-4.646,1.174-6.929c-0.446-6.805-4.769-12.774-4.769-12.774
					c-3.378,2.417-4.667,15.793-6.003,17.735c-1.336,1.942-1.864-3.696-1.864-3.696l-6.806-0.329
					C327.272,262.934,326.342,270.897,330.267,276.553z"/>
			</g>
			<g>
				<path style="fill:#407BFF;" d="M341.842,249.354c-1.732,0.218-6.151,14.815-6.151,14.815l11.057,4.787l2.928-8.604
					L341.842,249.354z"/>
				<path style="opacity:0.5;fill:#FFFFFF;enable-background:new    ;" d="M349.68,260.35l-2.93,8.61l-2.85-1.23l-8.21-3.56
					c0,0,4.42-14.6,6.15-14.82l3.26,4.57L349.68,260.35z"/>
				<path style="opacity:0.2;enable-background:new    ;" d="M349.68,260.35l-2.93,8.61l-2.85-1.23c-2.92-6.26-0.28-11.57,1.2-13.81
					L349.68,260.35z"/>
			</g>
			<polygon style="fill:#E4897B;" points="297.496,406.88 290.751,405.029 291.959,388.573 298.693,390.431 			"/>
			<path style="fill:#263238;" d="M290.343,404.133l7.825,0.543c0.274,0.007,0.49,0.234,0.484,0.508c0,0.003,0,0.005,0,0.008
				l-0.048,6.223c-0.047,0.675-0.628,1.186-1.303,1.148c-2.727-0.234-4.018-0.481-7.459-0.747c-2.113-0.152-6.303-0.253-9.159-0.916
				s-2.124-3.468-0.857-3.439c3.007,0.055,7.218-1.603,9.29-3.01C289.478,404.211,289.91,404.099,290.343,404.133z"/>
			<path style="fill:#407BFF;" d="M286.502,404.714c-0.219-0.255-0.273-0.613-0.136-0.92c0.052-0.206,0.206-0.37,0.408-0.436
				c0.879-0.27,2.762,1.212,2.974,1.383c0.046,0.044,0.065,0.109,0.051,0.171c-0.015,0.063-0.068,0.108-0.132,0.114
				c-0.62,0.109-1.25,0.15-1.879,0.122C287.319,405.169,286.861,405.014,286.502,404.714z M286.867,403.699
				c-0.099,0.031-0.175,0.113-0.199,0.215c-0.08,0.195-0.051,0.418,0.076,0.587c0.307,0.344,1.22,0.446,2.484,0.287
				C288.454,404.217,287.336,403.552,286.867,403.699L286.867,403.699z"/>
			<path style="fill:#407BFF;" d="M289.541,405.025c-0.665-0.458-1.602-1.991-1.394-2.737c0.08-0.276,0.338-0.461,0.624-0.451
				c0.256-0.013,0.504,0.087,0.679,0.274c0.65,0.73,0.349,2.749,0.345,2.81c-0.013,0.053-0.049,0.097-0.098,0.121
				c-0.024,0.004-0.048-0.002-0.068-0.015C289.602,405.04,289.569,405.039,289.541,405.025z M288.784,402.187
				c-0.234,0.011-0.302,0.121-0.323,0.214c-0.11,0.501,0.476,1.645,1.041,2.197c0.063-0.654,0.094-1.805-0.301-2.239
				c-0.083-0.102-0.205-0.164-0.336-0.172L288.784,402.187z"/>
			<polygon style="opacity:0.2;enable-background:new    ;" points="298.693,390.431 291.957,388.582 291.269,397.988 
				298.04,399.496 			"/>
			<polygon style="fill:#E4897B;" points="306.313,406.638 312.679,409.541 314.302,402.703 316.476,393.499 310.128,390.587 
				307.945,399.783 			"/>
			<polygon style="opacity:0.2;enable-background:new    ;" points="307.945,399.783 314.302,402.703 316.476,393.499 
				310.128,390.587 			"/>
			<path style="fill:#263238;" d="M306.051,405.691l7.638,1.783c0.269,0.05,0.447,0.309,0.397,0.578
				c-0.001,0.003-0.001,0.005-0.002,0.008l-1.04,6.136c-0.154,0.659-0.809,1.071-1.469,0.926c-2.655-0.665-3.89-1.116-7.245-1.926
				c-2.062-0.487-6.182-1.254-8.896-2.363c-2.714-1.109-1.544-3.762-0.298-3.531c2.96,0.533,7.382-0.432,9.651-1.491
				C305.185,405.631,305.629,405.589,306.051,405.691z"/>
			<path style="fill:#407BFF;" d="M302.166,405.653c-0.176-0.286-0.172-0.649,0.012-0.93c0.084-0.195,0.262-0.333,0.472-0.365
				c0.91-0.127,2.534,1.637,2.715,1.839c0.038,0.051,0.047,0.118,0.023,0.178c-0.024,0.059-0.084,0.096-0.148,0.091
				c-0.629,0.009-1.258-0.051-1.874-0.179C302.901,406.232,302.473,406.006,302.166,405.653z M302.689,404.709
				c-0.103,0.015-0.191,0.084-0.23,0.18c-0.11,0.18-0.117,0.405-0.018,0.591c0.249,0.388,1.133,0.635,2.406,0.679
				C304.173,405.473,303.174,404.639,302.689,404.709L302.689,404.709z"/>
			<path style="fill:#407BFF;" d="M305.117,406.444c-0.584-0.558-1.265-2.22-0.94-2.924c0.123-0.259,0.407-0.402,0.688-0.345
				c0.254,0.028,0.484,0.166,0.627,0.379c0.525,0.825-0.093,2.769-0.107,2.829c-0.021,0.05-0.064,0.088-0.116,0.104
				c-0.024,0-0.047-0.009-0.065-0.025C305.175,406.468,305.143,406.462,305.117,406.444z M304.822,403.522
				c-0.233-0.026-0.318,0.071-0.353,0.16c-0.189,0.477,0.208,1.7,0.677,2.335c0.167-0.636,0.38-1.767,0.06-2.258
				c-0.066-0.114-0.176-0.195-0.305-0.223L304.822,403.522z"/>
			<g>
				<path style="fill:#263238;" d="M353.523,313.19l2.055-22.739l37.968,0.893c0,0,4.495,31.684,1.228,37.504
					c-5.833,10.39-44.107,4.488-53.058,5.376c-3.653,1.948-23.216,66.773-23.216,66.773l-10.952-4.42
					c0,0,11.779-54.712,14.462-65.016C325.742,317.23,340.946,317.48,353.523,313.19z"/>
			</g>
			<g>
				<path style="fill:#263238;" d="M290.602,395.459l9.66,0.894c0,0,11.847-60.326,12.764-60.581
					c1.652-0.469,6.454-1.01,9.031-1.683c17.926-4.664,62.075-13.241,62.075-13.241l-16.279-15.684c0,0-73.81,8.86-75.453,26.181
					C291.615,339.676,290.602,395.459,290.602,395.459z"/>
			</g>
			<path style="opacity:0.2;enable-background:new    ;" d="M315.635,335.814c1.652-0.47,3.845-1.052,6.422-1.724
				c-0.713,0.375,1.362-9.017,3.428-11.446c4.105-4.841,20.598-7.457,26.511-8.407c4.945-0.791,21.542-2.257,21.542-2.257
				s-29.295-2.53-51.376,3.529C311.249,318.51,313.193,329.163,315.635,335.814z"/>
			<g>
				<path style="fill:#263238;" d="M335.67,251.191c0.091,0.352-0.129,0.679-0.492,0.73l-6.45,0.903
					c-0.363,0.051-0.73-0.194-0.821-0.546l-3.222-12.529c-0.091-0.352,0.117-0.767,0.48-0.818l6.45-0.903
					c0.362-0.051,0.742,0.282,0.833,0.634L335.67,251.191z"/>
				<path style="opacity:0.5;fill:#FFFFFF;" d="M331.721,238.678l3.259,12.649c0.092,0.357-0.062,0.629-0.422,0.68l-5.47,0.766
					c-0.367,0.051-1.067-0.057-1.159-0.413l-3.265-12.693c-0.092-0.357,0.493-0.735,0.861-0.786l5.47-0.766
					C331.353,238.064,331.629,238.322,331.721,238.678z"/>
			</g>
			<polygon style="fill:#407BFF;" points="306.714,394.039 306.313,397.727 318.978,402.187 320.165,399.496 			"/>
			<polygon style="fill:#407BFF;" points="288.594,392.211 288.978,395.889 301.04,397.269 301.548,394.376 			"/>
			<g>
				<path style="fill:#407BFF;" d="M354.714,295.094c-2.225-12.735-5.959-29.789-12.872-45.74c3.635-1.539,7.379-2.809,11.199-3.801
					c5.578-1.511,11.239-2.699,16.954-3.558c3.952-0.42,7.93-0.53,11.899-0.329c0,0,8.56,15.986,12.9,53.428H354.714z"/>
				<path style="opacity:0.6;fill:#FFFFFF;enable-background:new    ;" d="M394.79,295.09h-40.08
					c-2.22-12.73-5.95-29.78-12.87-45.74c3.64-1.54,7.38-2.81,11.2-3.8c5.58-1.51,11.24-2.7,16.95-3.56
					c3.96-0.42,7.94-0.53,11.9-0.32c0,0,0.82,1.52,2.08,4.74c1.42,3.63,3.4,9.41,5.4,17.58
					C391.33,271.99,393.31,282.28,394.79,295.09z"/>
				<path style="opacity:0.2;enable-background:new    ;" d="M389.37,263.99c-6.49,4.83-15.93-2.04-15.93-2.04l10.53-15.54
					C385.39,250.04,387.37,255.82,389.37,263.99z"/>
				<path style="fill:#263238;" d="M360.829,252.242c6.325,1.4,11.226-7.714,11.226-7.714s0.013-2.409-9.587-1.204
					C352.868,244.527,351.932,250.273,360.829,252.242z"/>
				<path style="opacity:0.2;fill:#FFFFFF;enable-background:new    ;" d="M360.829,252.242c6.325,1.4,11.226-7.714,11.226-7.714
					s0.013-2.409-9.587-1.204C352.868,244.527,351.932,250.273,360.829,252.242z"/>
				<polygon style="opacity:0.5;fill:#FFFFFF;enable-background:new    ;" points="354.464,264.802 370.328,263.088 
					374.165,281.387 358.787,282.604 				"/>
				<polygon style="opacity:0.2;enable-background:new    ;" points="354.464,264.802 374.165,281.387 370.328,263.088 				"/>
			</g>
			<path style="fill:#E4897B;" d="M346.341,258.055l-5.763-3.781c0,0-2.444-7.375-3.004-8.099c-0.56-0.724-6.63,0.928-7.305,1.022
				c-0.674,0.094,1.105,7.603,1.92,8.251c0.815,0.648,3.462,0.736,3.462,0.736l6.547,5.768L346.341,258.055z"/>
			<g>
				<path style="fill:#263238;" d="M380.935,241.678c-3.85,0.888-13.079,16.85-18.008,19.789
					c-4.929,2.939-18.574-6.516-18.574-6.516l-4.675,5.81c0,0,11.047,9.743,20.72,9.974c9.674,0.231,23.38-13.443,25.424-18.457
					C387.867,247.265,385.614,240.598,380.935,241.678z"/>
				<path style="opacity:0.2;fill:#FFFFFF;enable-background:new    ;" d="M380.935,241.678c-3.85,0.888-13.079,16.85-18.008,19.789
					c-4.929,2.939-18.574-6.516-18.574-6.516l-4.675,5.81c0,0,11.047,9.743,20.72,9.974c9.674,0.231,23.38-13.443,25.424-18.457
					C387.867,247.265,385.614,240.598,380.935,241.678z"/>
			</g>
			<g>
				<path style="fill:#E4897B;" d="M360.547,227.703c1.516,5.471,5.112,15.087,10.262,16.67c0,0-3.793,6.206-9.469,6.726
					c-3.612,0.331-5.612-3.747-5.612-3.747c3.685-0.687,2.276-3.387-0.629-6.774L360.547,227.703z"/>
				<path style="opacity:0.2;enable-background:new    ;" d="M358.328,232.952l-3.222,7.621c0.689,0.782,1.309,1.622,1.854,2.51
					c3.62,0.272,6.219-5.466,5.334-7.799C361.974,234.322,358.974,233.734,358.328,232.952z"/>
			</g>
			<g>
				<path style="fill:#263238;" d="M348.039,218.971c3.453,1.428,2.794,5.196-2.93,12.06c-3.527-3.034-5.437-9.943-3.59-12.162
					C343.367,216.651,345.032,217.739,348.039,218.971z"/>
				<path style="fill:#E4897B;" d="M362.228,221.921c1.202,7.469,2.278,11.773-0.585,16.391c-4.317,6.941-14.167,5.613-17.579-1.348
					c-3.055-6.254-4.514-17.42,2.037-21.964c4.665-3.272,11.098-2.143,14.37,2.522C361.39,218.832,361.991,220.338,362.228,221.921z
					"/>
				<path style="fill:#263238;" d="M351.682,226.41c0.134,0.599-0.077,1.158-0.468,1.243s-0.812-0.324-0.946-0.923
					c-0.134-0.599,0.069-1.154,0.457-1.248C351.112,225.389,351.508,225.829,351.682,226.41z"/>
				<path style="fill:#263238;" d="M344.869,227.95c0.134,0.599-0.077,1.158-0.468,1.243s-0.82-0.32-0.957-0.927
					c-0.138-0.607,0.077-1.158,0.468-1.243C344.303,226.937,344.735,227.351,344.869,227.95z"/>
				<path style="fill:#DE5753;" d="M347.156,227.733c-0.303,1.994-0.88,3.936-1.714,5.772c1.305,0.746,2.988-0.111,2.988-0.111
					L347.156,227.733z"/>
				<path style="fill:#263238;" d="M353.061,223.843c0.08-0.008,0.155-0.043,0.213-0.099c0.13-0.152,0.114-0.379-0.036-0.511
					c-0.869-0.775-2.062-1.078-3.195-0.81c-0.186,0.048-0.298,0.238-0.25,0.424c0.002,0.008,0.005,0.016,0.007,0.024
					c0.063,0.186,0.258,0.292,0.448,0.243l0,0c0.896-0.197,1.832,0.051,2.514,0.665
					C352.849,223.842,352.957,223.865,353.061,223.843z"/>
				<path style="fill:#263238;" d="M341.25,226.35c0.136-0.032,0.242-0.137,0.277-0.272c0.184-0.9,0.788-1.658,1.624-2.038
					c0.187-0.07,0.283-0.277,0.216-0.465c-0.069-0.184-0.27-0.281-0.457-0.22c-1.067,0.466-1.843,1.419-2.083,2.558
					c-0.047,0.191,0.071,0.384,0.262,0.431c0.002,0,0.004,0.001,0.005,0.001C341.146,226.356,341.198,226.358,341.25,226.35z"/>
				<path style="fill:#263238;" d="M357.827,216.051c-3.178,1.954-1.922,5.571,4.822,11.427c3-3.559,3.785-10.693,1.598-12.574
					C362.06,213.023,360.605,214.35,357.827,216.051z"/>
				<path style="fill:#E4897B;" d="M367.06,227.024c-0.112,1.901-0.973,3.679-2.394,4.946c-1.897,1.657-3.925,0.22-4.308-2.134
					c-0.342-2.123,0.236-5.547,2.574-6.296C365.269,222.792,367.186,224.693,367.06,227.024z"/>
				<g>
					<path style="fill:#263238;" d="M349.676,235.02c0.599,0.79,1.363,2.35,1.363,2.35c0.154-0.044,0.308-0.087,0.459-0.139
						c2.071-0.646,2.818-1.63,3.018-2.525c0.108-0.49,0.046-0.957-0.053-1.323c-0.11-0.424-0.285-0.702-0.285-0.702
						c-0.893,0.998-2.777,1.749-3.8,2.108C349.952,234.943,349.676,235.02,349.676,235.02z"/>
					<path style="fill:#FFFFFF;" d="M350.379,234.788l0.42,0.683c1.949-0.613,3.239-1.307,3.665-2.089
						c-0.11-0.424-0.285-0.702-0.285-0.702C353.286,233.678,351.402,234.429,350.379,234.788z"/>
					<path style="fill:#A24E3F;" d="M351.498,237.23c2.071-0.646,2.818-1.63,3.018-2.525c-0.697,0.247-1.51,0.623-2.157,1.173
						C351.863,236.297,351.619,236.78,351.498,237.23z"/>
				</g>
				<path style="fill:#263238;" d="M364.209,216.011c0,0,1.846-2.967-2.11-6s-8.737,0-8.737,0s-0.812-0.784-3.686-1.348
					c-2.874-0.564-6.764,3.494-9.137,4.465c-2.374,0.971-4.813,3.542-3.561,6.641c1.253,3.099-2.505,10.234,3.099,9.436
					c0,0-1.714-0.748-1.055-2.85c0.659-2.102,2.996-2.168,3.08-6.52c0.085-4.352,4.187-1.6,4.187-1.6s1.305-2.018,3.085-1.825
					c1.78,0.194,4.874,1.537,5.305,6.964c0.431,5.427,4.646,6.857,8.275,3.637c3.629-3.221,4.355-3.159,5.014-1.541
					c0,0,1.385-2.364-1.582-3.143C363.418,221.549,363.088,217.593,364.209,216.011z"/>
			</g>
			<g>
				<path style="fill:#407BFF;" d="M369.094,251.551l12.527,9.332c0,0,8.928-9.962,3.785-17.791
					C380.264,235.264,369.094,251.551,369.094,251.551z"/>
				<path style="opacity:0.5;fill:#FFFFFF;enable-background:new    ;" d="M369.094,251.551l12.527,9.332
					c0,0,8.928-9.962,3.785-17.791C380.264,235.264,369.094,251.551,369.094,251.551z"/>
			</g>
		</g>
	</g>
</g>
</svg>
